# xmcd
#
# Track frame offsets: 
#        150
#        30307
#        51764
#        80718
#        98811
#        121737
#        151932
#        225703
#        250759
#
# Disc length: 3804 seconds
#
# Revision: 0
# Processed by: cddbd v1.5.2PL0 Copyright (c) Steve Scherf et al.
# Submitted via: ExactAudioCopy v0.95b4
#
DISCID=610eda09
DTITLE=Eric Clapton and Steve Winwood - Live From Madison Square Garden 
DTITLE=[Disc 2]
DYEAR=1900
DGENRE=Blues
TTITLE0=After Midnight
TTITLE1=Split Decision
TTITLE2=Rambling On My Mind
TTITLE3=Georgia On My Mind
TTITLE4=Little Wing
TTITLE5=Voodoo Chile
TTITLE6=Can't Find My Way Home
TTITLE7=Dear Mr. Fantasy
TTITLE8=Cocaine
EXTD=
EXTT0=
EXTT1=
EXTT2=
EXTT3=
EXTT4=
EXTT5=
EXTT6=
EXTT7=
EXTT8=
PLAYORDER=
